<svg width="100%" height="100%" viewBox="0 0 400 220" xmlns="http://www.w3.org/2000/svg">
    <defs>
        <linearGradient id="bgGradient" x1="0%" y1="0%" x2="100%" y2="100%">
            <stop offset="0%" stop-color="#0d1117" />
            <stop offset="100%" stop-color="#161b22" />
        </linearGradient>
    </defs>
    
    <rect width="100%" height="100%" fill="url(#bgGradient)" rx="12" ry="12"/>
    
    <text x="50%" y="40%" text-anchor="middle" fill="white" font-family="Arial, sans-serif" font-weight="bold" font-size="28">
       OpenEvxEngine
    </text>
    
    <text x="50%" y="55%" text-anchor="middle" fill="#8b949e" font-family="Arial, sans-serif" font-weight="300" font-size="16">
        Open source project for roblox
    </text>
    
    <!-- Bouton Repository centré -->
    <g transform="translate(125, 160)" cursor="pointer">
        <rect x="0" y="0" width="150" height="36" rx="6" ry="6" fill="#8b949e"/>
        <text x="75" y="22" text-anchor="middle" fill="white" font-family="Arial, sans-serif" font-weight="bold" font-size="14">View Repository</text>
    </g>
    
    <g opacity="0.85" transform="translate(60, 67)">
        <path fill="white" d="M12 0c-6.626 0-12 5.373-12 12 0 5.302 3.438 9.8 8.207 11.387.599.111.793-.261.793-.577v-2.234c-3.338.726-4.033-1.416-4.033-1.416-.546-1.387-1.333-1.756-1.333-1.756-1.089-.745.083-.729.083-.729 1.205.084 1.839 1.237 1.839 1.237 1.07 1.834 2.807 1.304 3.492.997.107-.775.418-1.305.762-1.604-2.665-.305-5.467-1.334-5.467-5.931 0-1.311.469-2.381 1.236-3.221-.124-.303-.535-1.524.117-3.176 0 0 1.008-.322 3.301 1.23.957-.266 1.983-.399 3.003-.404 1.02.005 2.047.138 3.006.404 2.291-1.552 3.297-1.23 3.297-1.23.653 1.653.242 2.874.118 3.176.77.84 1.235 1.911 1.235 3.221 0 4.609-2.807 5.624-5.479 5.921.43.372.823 1.102.823 2.222v3.293c0 .319.192.694.801.576 4.765-1.589 8.199-6.086 8.199-11.386 0-6.627-5.373-12-12-12z"/>
    </g>
</svg>